<svg width="391" height="90" viewBox="0 0 391 90" fill="none" xmlns="http://www.w3.org/2000/svg">
<path d="M33.25 39.6752H23.6098C22.7249 39.6752 22.0094 40.3907 22 41.2851V65.3855C22 66.2798 22.7249 66.9953 23.6098 66.9953H33.25C34.1444 66.9953 34.8598 66.2704 34.8598 65.3855V41.2851C34.8598 40.3907 34.1349 39.6752 33.25 39.6752Z" fill="#7952B3"/>
<path d="M49.3201 22.0052H39.6799C38.795 22.0052 38.0701 22.7207 38.0701 23.6057V65.386C38.0701 66.2804 38.795 66.9959 39.6799 66.9959H49.3201C50.2144 66.9959 50.9299 66.271 50.9299 65.386V23.6151C50.9299 22.7207 50.205 22.0052 49.3201 22.0052Z" fill="#7952B3"/>
<path d="M65.3902 34.8552H55.75C54.8556 34.8552 54.1402 35.5706 54.1402 36.465V65.3855C54.1402 66.2798 54.8651 66.9953 55.75 66.9953H65.3902C66.2845 66.9953 67 66.2704 67 65.3855V36.465C67 35.5706 66.2751 34.8552 65.3902 34.8552Z" fill="#7952B3"/>
<path d="M45 85C67.0914 85 85 67.0914 85 45C85 22.9086 67.0914 5 45 5C22.9086 5 5 22.9086 5 45C5 67.0914 22.9086 85 45 85Z" stroke="white" stroke-width="10"/>
<path d="M116.98 40.42C116.98 42.724 116.524 44.692 115.612 46.324C114.7 47.956 113.428 49.204 111.796 50.068C110.188 50.956 108.316 51.436 106.18 51.508V46.432C107.812 46.336 109.144 45.832 110.176 44.92C111.208 44.008 111.724 42.472 111.724 40.312V19.504H116.98V40.42ZM120.143 46L132.095 18.46H132.383L144.335 46H138.287L136.235 40.816H127.451L125.291 46H120.143ZM129.287 36.424H134.507L131.951 29.98L129.287 36.424ZM151.487 37.756L141.731 19.504H148.175L154.259 31.744L160.199 19.504H166.643L156.707 37.756V46H151.487V37.756ZM182.299 46V18.424H182.335L195.763 37.468L209.515 18.424H209.587V46H204.367V33.364L195.727 45.64H195.655L187.339 34.156V46H182.299ZM236.308 43.804C236.02 44.044 235.48 44.368 234.688 44.776C233.92 45.184 232.972 45.544 231.844 45.856C230.716 46.168 229.468 46.312 228.1 46.288C226.012 46.24 224.14 45.868 222.484 45.172C220.852 44.452 219.46 43.48 218.308 42.256C217.18 41.032 216.316 39.628 215.716 38.044C215.116 36.46 214.816 34.768 214.816 32.968C214.816 30.28 215.356 27.904 216.436 25.84C217.516 23.776 219.016 22.156 220.936 20.98C222.88 19.804 225.136 19.216 227.704 19.216C229.48 19.216 231.052 19.456 232.42 19.936C233.788 20.416 234.904 20.932 235.768 21.484L233.716 26.416C233.116 25.96 232.312 25.492 231.304 25.012C230.32 24.508 229.18 24.256 227.884 24.256C226.54 24.256 225.28 24.628 224.104 25.372C222.952 26.116 222.016 27.124 221.296 28.396C220.6 29.644 220.252 31.072 220.252 32.68C220.252 34.384 220.576 35.884 221.224 37.18C221.872 38.452 222.796 39.448 223.996 40.168C225.196 40.888 226.6 41.248 228.208 41.248C229.624 41.248 230.836 41.02 231.844 40.564C232.852 40.108 233.62 39.628 234.148 39.124L236.308 43.804ZM246.829 28.936L246.685 30.268L247.477 29.26L256.117 19.504H262.885L251.941 31.384L262.921 46H256.297L248.125 34.696L246.829 35.992V46H241.537V19.504H246.829V28.936ZM266.885 19.504H284.957V24.544H272.105V30.196H283.481V35.236H272.105V40.96H285.461V46H266.885V19.504ZM314.585 47.08L296.045 30.34L296.153 46H290.861V18.46H291.077L309.581 35.452L309.473 19.504H314.729V47.08H314.585ZM319.753 46L333.217 24.544H325.153C324.649 24.544 324.121 24.436 323.569 24.22C323.041 23.98 322.585 23.668 322.201 23.284C321.841 22.876 321.661 22.432 321.661 21.952V18.172H326.449V18.676C326.449 19.204 326.533 19.48 326.701 19.504C326.869 19.504 327.169 19.504 327.601 19.504H342.325L328.717 40.96H342.289V46H319.753ZM347.533 19.504H352.753V46H347.533V19.504ZM359.592 19.504H377.664V24.544H364.812V30.196H376.188V35.236H364.812V40.96H378.168V46H359.592V19.504Z" fill="white"/>
<path d="M108 67.44H116.84V69.68H110.34V73.78H116V76.02H110.34V82H108V67.44ZM121.725 82.36C120.952 82.36 120.312 82.1267 119.805 81.66C119.298 81.18 119.032 80.5667 119.005 79.82V73.54H121.245V79.02C121.272 79.4333 121.392 79.7733 121.605 80.04C121.818 80.3067 122.158 80.44 122.625 80.44C123.065 80.44 123.458 80.3067 123.805 80.04C124.152 79.76 124.418 79.38 124.605 78.9C124.805 78.42 124.905 77.88 124.905 77.28V73.54H127.145V82H125.125L124.945 80.14L125.005 80.44C124.832 80.8 124.585 81.1333 124.265 81.44C123.945 81.7333 123.565 81.96 123.125 82.12C122.698 82.28 122.232 82.36 121.725 82.36ZM130.235 66.4H132.475V82H130.235V66.4ZM135.548 66.4H137.788V82H135.548V66.4ZM155.367 70.4C154.847 70.1333 154.293 69.9067 153.707 69.72C153.12 69.52 152.56 69.42 152.027 69.42C151.307 69.42 150.733 69.58 150.307 69.9C149.893 70.22 149.687 70.66 149.687 71.22C149.687 71.62 149.833 71.9733 150.127 72.28C150.42 72.5733 150.793 72.8333 151.247 73.06C151.7 73.2733 152.18 73.48 152.687 73.68C153.127 73.84 153.56 74.0333 153.987 74.26C154.427 74.4733 154.82 74.74 155.167 75.06C155.513 75.38 155.787 75.78 155.987 76.26C156.2 76.7267 156.307 77.3067 156.307 78C156.307 78.76 156.113 79.46 155.727 80.1C155.34 80.7267 154.787 81.2267 154.067 81.6C153.347 81.9733 152.467 82.16 151.427 82.16C150.827 82.16 150.233 82.0933 149.647 81.96C149.073 81.8267 148.527 81.6467 148.007 81.42C147.487 81.18 147.007 80.9133 146.567 80.62L147.607 78.8C147.927 79.04 148.293 79.26 148.707 79.46C149.12 79.66 149.547 79.82 149.987 79.94C150.427 80.0467 150.84 80.1 151.227 80.1C151.64 80.1 152.047 80.0333 152.447 79.9C152.86 79.7667 153.2 79.5467 153.467 79.24C153.747 78.9333 153.887 78.5267 153.887 78.02C153.887 77.6067 153.767 77.2533 153.527 76.96C153.287 76.6667 152.973 76.4133 152.587 76.2C152.213 75.9733 151.8 75.7733 151.347 75.6C150.893 75.4267 150.427 75.2333 149.947 75.02C149.48 74.8067 149.047 74.5467 148.647 74.24C148.247 73.92 147.92 73.5333 147.667 73.08C147.413 72.6267 147.287 72.0667 147.287 71.4C147.287 70.6 147.473 69.9067 147.847 69.32C148.22 68.7333 148.733 68.2667 149.387 67.92C150.053 67.5733 150.82 67.3867 151.687 67.36C152.713 67.36 153.587 67.4867 154.307 67.74C155.04 67.98 155.687 68.2733 156.247 68.62L155.367 70.4ZM159.707 69.82H161.967V73.54H164.167V75.3H161.967V82H159.707V75.3H158.267V73.54H159.707V69.82ZM169.928 82.22C169.128 82.22 168.401 82.0533 167.748 81.72C167.108 81.3867 166.601 80.8933 166.228 80.24C165.855 79.5733 165.668 78.7533 165.668 77.78C165.668 76.82 165.861 76 166.248 75.32C166.648 74.6267 167.168 74.0933 167.808 73.72C168.461 73.3467 169.168 73.16 169.928 73.16C170.741 73.16 171.395 73.32 171.888 73.64C172.395 73.96 172.788 74.34 173.068 74.78L172.948 75.1L173.168 73.54H175.228V82H172.988V79.94L173.208 80.48C173.155 80.56 173.048 80.6933 172.888 80.88C172.728 81.0533 172.508 81.2467 172.228 81.46C171.948 81.6733 171.615 81.8533 171.228 82C170.855 82.1467 170.421 82.22 169.928 82.22ZM170.548 80.38C170.948 80.38 171.308 80.3067 171.628 80.16C171.961 80.0133 172.241 79.8067 172.468 79.54C172.708 79.2733 172.881 78.9533 172.988 78.58V76.74C172.881 76.3933 172.708 76.0933 172.468 75.84C172.228 75.5733 171.935 75.3667 171.588 75.22C171.255 75.0733 170.881 75 170.468 75C170.015 75 169.595 75.1133 169.208 75.34C168.821 75.5667 168.508 75.88 168.268 76.28C168.041 76.68 167.928 77.14 167.928 77.66C167.928 78.1667 168.048 78.6267 168.288 79.04C168.528 79.4533 168.848 79.78 169.248 80.02C169.648 80.26 170.081 80.38 170.548 80.38ZM185.321 81.22C184.948 81.5267 184.488 81.7733 183.941 81.96C183.408 82.1333 182.868 82.22 182.321 82.22C181.388 82.22 180.568 82.04 179.861 81.68C179.155 81.3067 178.601 80.7933 178.201 80.14C177.815 79.4733 177.621 78.68 177.621 77.76C177.621 76.84 177.828 76.0467 178.241 75.38C178.668 74.7133 179.221 74.2067 179.901 73.86C180.595 73.5 181.328 73.32 182.101 73.32C182.808 73.32 183.435 73.42 183.981 73.62C184.528 73.8067 185.001 74.0667 185.401 74.4L184.281 75.86C184.068 75.6867 183.788 75.5267 183.441 75.38C183.108 75.22 182.728 75.14 182.301 75.14C181.848 75.14 181.435 75.2533 181.061 75.48C180.701 75.7067 180.408 76.02 180.181 76.42C179.968 76.8067 179.861 77.2533 179.861 77.76C179.861 78.24 179.975 78.68 180.201 79.08C180.428 79.48 180.741 79.8 181.141 80.04C181.541 80.2667 182.001 80.38 182.521 80.38C182.855 80.38 183.161 80.3333 183.441 80.24C183.735 80.1333 183.988 79.9933 184.201 79.82L185.321 81.22ZM187.618 82V66.4H189.858V82H187.618ZM191.958 76.32L195.818 82H193.218L190.478 77.6L191.958 76.32ZM189.178 79.46L188.958 77.3L194.098 73.34L195.458 74.54L189.178 79.46ZM212.476 70.4C211.956 70.1333 211.403 69.9067 210.816 69.72C210.229 69.52 209.669 69.42 209.136 69.42C208.416 69.42 207.843 69.58 207.416 69.9C207.003 70.22 206.796 70.66 206.796 71.22C206.796 71.62 206.943 71.9733 207.236 72.28C207.529 72.5733 207.903 72.8333 208.356 73.06C208.809 73.2733 209.289 73.48 209.796 73.68C210.236 73.84 210.669 74.0333 211.096 74.26C211.536 74.4733 211.929 74.74 212.276 75.06C212.623 75.38 212.896 75.78 213.096 76.26C213.309 76.7267 213.416 77.3067 213.416 78C213.416 78.76 213.223 79.46 212.836 80.1C212.449 80.7267 211.896 81.2267 211.176 81.6C210.456 81.9733 209.576 82.16 208.536 82.16C207.936 82.16 207.343 82.0933 206.756 81.96C206.183 81.8267 205.636 81.6467 205.116 81.42C204.596 81.18 204.116 80.9133 203.676 80.62L204.716 78.8C205.036 79.04 205.403 79.26 205.816 79.46C206.229 79.66 206.656 79.82 207.096 79.94C207.536 80.0467 207.949 80.1 208.336 80.1C208.749 80.1 209.156 80.0333 209.556 79.9C209.969 79.7667 210.309 79.5467 210.576 79.24C210.856 78.9333 210.996 78.5267 210.996 78.02C210.996 77.6067 210.876 77.2533 210.636 76.96C210.396 76.6667 210.083 76.4133 209.696 76.2C209.323 75.9733 208.909 75.7733 208.456 75.6C208.003 75.4267 207.536 75.2333 207.056 75.02C206.589 74.8067 206.156 74.5467 205.756 74.24C205.356 73.92 205.029 73.5333 204.776 73.08C204.523 72.6267 204.396 72.0667 204.396 71.4C204.396 70.6 204.583 69.9067 204.956 69.32C205.329 68.7333 205.843 68.2667 206.496 67.92C207.163 67.5733 207.929 67.3867 208.796 67.36C209.823 67.36 210.696 67.4867 211.416 67.74C212.149 67.98 212.796 68.2733 213.356 68.62L212.476 70.4ZM215.317 77.68C215.317 76.8267 215.517 76.06 215.917 75.38C216.317 74.6867 216.877 74.1467 217.597 73.76C218.33 73.36 219.157 73.16 220.077 73.16C221.023 73.16 221.843 73.36 222.537 73.76C223.243 74.1467 223.79 74.6867 224.177 75.38C224.563 76.06 224.757 76.8267 224.757 77.68C224.757 78.5333 224.563 79.3067 224.177 80C223.79 80.68 223.243 81.22 222.537 81.62C221.843 82.02 221.017 82.22 220.057 82.22C219.15 82.22 218.337 82.04 217.617 81.68C216.897 81.3067 216.33 80.78 215.917 80.1C215.517 79.42 215.317 78.6133 215.317 77.68ZM217.577 77.7C217.577 78.1933 217.683 78.6467 217.897 79.06C218.11 79.46 218.403 79.78 218.777 80.02C219.15 80.26 219.563 80.38 220.017 80.38C220.51 80.38 220.937 80.26 221.297 80.02C221.67 79.78 221.957 79.46 222.157 79.06C222.37 78.6467 222.477 78.1933 222.477 77.7C222.477 77.1933 222.37 76.74 222.157 76.34C221.957 75.9267 221.67 75.6 221.297 75.36C220.937 75.12 220.51 75 220.017 75C219.55 75 219.13 75.1267 218.757 75.38C218.397 75.62 218.11 75.94 217.897 76.34C217.683 76.74 217.577 77.1933 217.577 77.7ZM227.85 82V75.5H226.41V73.52H227.85V70.2C227.85 69.0267 228.144 68.1067 228.73 67.44C229.33 66.76 230.197 66.42 231.33 66.42C231.65 66.42 232.004 66.4667 232.39 66.56C232.777 66.6533 233.117 66.8 233.41 67L232.47 68.62C232.35 68.4867 232.21 68.3933 232.05 68.34C231.89 68.2867 231.73 68.26 231.57 68.26C231.117 68.26 230.757 68.4133 230.49 68.72C230.224 69.0267 230.09 69.54 230.09 70.26V73.52H232.73V75.5H230.09V82H227.85ZM235.957 69.82H238.217V73.54H240.417V75.3H238.217V82H235.957V75.3H234.517V73.54H235.957V69.82ZM248.318 73.54L250.538 78.68L250.118 78.72L252.138 73.54H254.338L250.478 82.5L247.758 76.78L245.278 82.5L241.378 73.54H243.578L245.958 78.98L245.178 78.84L246.958 74.8L246.378 73.54H248.318ZM259.42 82.22C258.62 82.22 257.894 82.0533 257.24 81.72C256.6 81.3867 256.094 80.8933 255.72 80.24C255.347 79.5733 255.16 78.7533 255.16 77.78C255.16 76.82 255.354 76 255.74 75.32C256.14 74.6267 256.66 74.0933 257.3 73.72C257.954 73.3467 258.66 73.16 259.42 73.16C260.234 73.16 260.887 73.32 261.38 73.64C261.887 73.96 262.28 74.34 262.56 74.78L262.44 75.1L262.66 73.54H264.72V82H262.48V79.94L262.7 80.48C262.647 80.56 262.54 80.6933 262.38 80.88C262.22 81.0533 262 81.2467 261.72 81.46C261.44 81.6733 261.107 81.8533 260.72 82C260.347 82.1467 259.914 82.22 259.42 82.22ZM260.04 80.38C260.44 80.38 260.8 80.3067 261.12 80.16C261.454 80.0133 261.734 79.8067 261.96 79.54C262.2 79.2733 262.374 78.9533 262.48 78.58V76.74C262.374 76.3933 262.2 76.0933 261.96 75.84C261.72 75.5733 261.427 75.3667 261.08 75.22C260.747 75.0733 260.374 75 259.96 75C259.507 75 259.087 75.1133 258.7 75.34C258.314 75.5667 258 75.88 257.76 76.28C257.534 76.68 257.42 77.14 257.42 77.66C257.42 78.1667 257.54 78.6267 257.78 79.04C258.02 79.4533 258.34 79.78 258.74 80.02C259.14 80.26 259.574 80.38 260.04 80.38ZM269.833 73.54L270.033 75.94L269.953 75.6C270.193 75.0933 270.52 74.66 270.933 74.3C271.36 73.9267 271.793 73.6467 272.233 73.46C272.673 73.26 273.033 73.16 273.313 73.16L273.213 75.4C272.573 75.3467 272.013 75.4667 271.533 75.76C271.067 76.04 270.7 76.4133 270.433 76.88C270.18 77.3467 270.053 77.84 270.053 78.36V82H267.813V73.54H269.833ZM279.275 82.22C278.275 82.22 277.422 82.0267 276.715 81.64C276.009 81.2533 275.469 80.72 275.095 80.04C274.722 79.3467 274.535 78.5667 274.535 77.7C274.535 76.8467 274.749 76.08 275.175 75.4C275.602 74.72 276.175 74.18 276.895 73.78C277.629 73.3667 278.435 73.16 279.315 73.16C280.475 73.16 281.429 73.5 282.175 74.18C282.935 74.8467 283.442 75.7933 283.695 77.02L276.875 79.32L276.355 78.06L281.675 76.16L281.215 76.42C281.069 76.02 280.829 75.6733 280.495 75.38C280.175 75.0867 279.722 74.94 279.135 74.94C278.669 74.94 278.255 75.0533 277.895 75.28C277.535 75.4933 277.249 75.8 277.035 76.2C276.835 76.5867 276.735 77.0467 276.735 77.58C276.735 78.1267 276.849 78.6067 277.075 79.02C277.302 79.4333 277.609 79.7533 277.995 79.98C278.382 80.1933 278.822 80.3 279.315 80.3C279.662 80.3 279.995 80.24 280.315 80.12C280.635 80 280.935 79.84 281.215 79.64L282.235 81.3C281.795 81.58 281.309 81.8067 280.775 81.98C280.255 82.14 279.755 82.22 279.275 82.22ZM292.766 67.44H302.426V69.68H295.106V73.56H301.626V75.82H295.106V79.76H302.706V82H292.766V67.44ZM307.49 73.54L307.69 75.36L307.61 75.12C307.903 74.5333 308.336 74.0667 308.91 73.72C309.496 73.36 310.19 73.18 310.99 73.18C311.79 73.18 312.45 73.4133 312.97 73.88C313.49 74.3467 313.756 74.96 313.77 75.72V82H311.53V76.52C311.516 76.0933 311.396 75.7533 311.17 75.5C310.943 75.2333 310.583 75.0933 310.09 75.08C309.636 75.08 309.23 75.22 308.87 75.5C308.51 75.7667 308.223 76.14 308.01 76.62C307.81 77.0867 307.71 77.6267 307.71 78.24V82H305.47V73.54H307.49ZM321.076 86.22C320.383 86.22 319.79 86.14 319.296 85.98C318.803 85.82 318.363 85.6067 317.976 85.34C317.603 85.0867 317.25 84.82 316.916 84.54L318.236 83C318.623 83.36 319.03 83.66 319.456 83.9C319.896 84.14 320.423 84.26 321.036 84.26C321.583 84.26 322.056 84.1667 322.456 83.98C322.87 83.7933 323.19 83.5333 323.416 83.2C323.643 82.8667 323.763 82.4667 323.776 82V79.9L323.916 80.32C323.69 80.84 323.276 81.2867 322.676 81.66C322.076 82.0333 321.33 82.22 320.436 82.22C319.663 82.22 318.95 82.0267 318.296 81.64C317.643 81.24 317.123 80.7 316.736 80.02C316.35 79.34 316.156 78.5733 316.156 77.72C316.156 76.84 316.356 76.06 316.756 75.38C317.17 74.6867 317.71 74.1467 318.376 73.76C319.056 73.36 319.776 73.16 320.536 73.16C321.283 73.16 321.943 73.2933 322.516 73.56C323.103 73.8267 323.543 74.16 323.836 74.56L323.716 74.88L323.956 73.54H326.016V82.04C326.016 82.8267 325.803 83.5333 325.376 84.16C324.963 84.8 324.383 85.3 323.636 85.66C322.903 86.0333 322.05 86.22 321.076 86.22ZM318.416 77.66C318.416 78.1667 318.53 78.6267 318.756 79.04C318.996 79.4533 319.316 79.78 319.716 80.02C320.13 80.26 320.59 80.38 321.096 80.38C321.536 80.38 321.93 80.3067 322.276 80.16C322.636 80.0133 322.943 79.8067 323.196 79.54C323.463 79.2733 323.656 78.96 323.776 78.6V76.76C323.656 76.4 323.463 76.0933 323.196 75.84C322.943 75.5733 322.636 75.3667 322.276 75.22C321.93 75.0733 321.536 75 321.096 75C320.59 75 320.13 75.1133 319.716 75.34C319.316 75.5667 318.996 75.88 318.756 76.28C318.53 76.68 318.416 77.14 318.416 77.66ZM329.103 73.54H331.343V82H329.103V73.54ZM329.003 70.52C329.003 70.1733 329.136 69.8867 329.403 69.66C329.683 69.4333 329.983 69.32 330.303 69.32C330.623 69.32 330.909 69.4333 331.163 69.66C331.429 69.8867 331.563 70.1733 331.563 70.52C331.563 70.8667 331.429 71.1533 331.163 71.38C330.909 71.5933 330.623 71.7 330.303 71.7C329.983 71.7 329.683 71.5867 329.403 71.36C329.136 71.1333 329.003 70.8533 329.003 70.52ZM336.435 73.54L336.635 75.36L336.555 75.12C336.848 74.5333 337.282 74.0667 337.855 73.72C338.442 73.36 339.135 73.18 339.935 73.18C340.735 73.18 341.395 73.4133 341.915 73.88C342.435 74.3467 342.702 74.96 342.715 75.72V82H340.475V76.52C340.462 76.0933 340.342 75.7533 340.115 75.5C339.888 75.2333 339.528 75.0933 339.035 75.08C338.582 75.08 338.175 75.22 337.815 75.5C337.455 75.7667 337.168 76.14 336.955 76.62C336.755 77.0867 336.655 77.6267 336.655 78.24V82H334.415V73.54H336.435ZM349.842 82.22C348.842 82.22 347.988 82.0267 347.282 81.64C346.575 81.2533 346.035 80.72 345.662 80.04C345.288 79.3467 345.102 78.5667 345.102 77.7C345.102 76.8467 345.315 76.08 345.742 75.4C346.168 74.72 346.742 74.18 347.462 73.78C348.195 73.3667 349.002 73.16 349.882 73.16C351.042 73.16 351.995 73.5 352.742 74.18C353.502 74.8467 354.008 75.7933 354.262 77.02L347.442 79.32L346.922 78.06L352.242 76.16L351.782 76.42C351.635 76.02 351.395 75.6733 351.062 75.38C350.742 75.0867 350.288 74.94 349.702 74.94C349.235 74.94 348.822 75.0533 348.462 75.28C348.102 75.4933 347.815 75.8 347.602 76.2C347.402 76.5867 347.302 77.0467 347.302 77.58C347.302 78.1267 347.415 78.6067 347.642 79.02C347.868 79.4333 348.175 79.7533 348.562 79.98C348.948 80.1933 349.388 80.3 349.882 80.3C350.228 80.3 350.562 80.24 350.882 80.12C351.202 80 351.502 79.84 351.782 79.64L352.802 81.3C352.362 81.58 351.875 81.8067 351.342 81.98C350.822 82.14 350.322 82.22 349.842 82.22ZM360.506 82.22C359.506 82.22 358.652 82.0267 357.946 81.64C357.239 81.2533 356.699 80.72 356.326 80.04C355.952 79.3467 355.766 78.5667 355.766 77.7C355.766 76.8467 355.979 76.08 356.406 75.4C356.832 74.72 357.406 74.18 358.126 73.78C358.859 73.3667 359.666 73.16 360.546 73.16C361.706 73.16 362.659 73.5 363.406 74.18C364.166 74.8467 364.672 75.7933 364.926 77.02L358.106 79.32L357.586 78.06L362.906 76.16L362.446 76.42C362.299 76.02 362.059 75.6733 361.726 75.38C361.406 75.0867 360.952 74.94 360.366 74.94C359.899 74.94 359.486 75.0533 359.126 75.28C358.766 75.4933 358.479 75.8 358.266 76.2C358.066 76.5867 357.966 77.0467 357.966 77.58C357.966 78.1267 358.079 78.6067 358.306 79.02C358.532 79.4333 358.839 79.7533 359.226 79.98C359.612 80.1933 360.052 80.3 360.546 80.3C360.892 80.3 361.226 80.24 361.546 80.12C361.866 80 362.166 79.84 362.446 79.64L363.466 81.3C363.026 81.58 362.539 81.8067 362.006 81.98C361.486 82.14 360.986 82.22 360.506 82.22ZM369.15 73.54L369.35 75.94L369.27 75.6C369.51 75.0933 369.837 74.66 370.25 74.3C370.677 73.9267 371.11 73.6467 371.55 73.46C371.99 73.26 372.35 73.16 372.63 73.16L372.53 75.4C371.89 75.3467 371.33 75.4667 370.85 75.76C370.383 76.04 370.017 76.4133 369.75 76.88C369.497 77.3467 369.37 77.84 369.37 78.36V82H367.13V73.54H369.15Z" fill="white"/>
</svg>
